<svg width="24" height="25" viewBox="0 0 24 25" fill="none" xmlns="http://www.w3.org/2000/svg">
<path d="M17.922 17.6109L17.5114 18.0259L17.1943 17.708C17.2827 17.6255 17.3763 17.5509 17.4617 17.4654C21.2136 13.7136 21.2136 7.60917 17.4617 3.85587C15.6453 2.03959 13.2292 1.04004 10.6595 1.04004C8.0884 1.04004 5.67212 2.03959 3.85437 3.85734C0.102541 7.60917 0.101806 13.7136 3.8529 17.4654C5.67078 19.2826 8.08693 20.2827 10.6573 20.2827C12.9098 20.2827 15.044 19.5134 16.761 18.1018L17.0993 18.4401L16.6887 18.8529L21.7265 23.8447L22.9598 22.5989L17.922 17.6109ZM4.27008 16.509C0.746989 12.9859 1.25944 7.63623 4.26861 4.62857C5.97616 2.92188 8.24624 1.98147 10.6609 1.98147C13.0743 1.98147 15.3443 2.92028 17.051 4.6271C19.7913 7.63623 20.5763 12.9858 17.0532 16.5089C15.3464 18.2157 13.0764 19.156 10.6609 19.156C8.24624 19.1561 5.9769 18.2157 4.27008 16.509ZM15.9164 9.27288C15.679 7.48795 14.7628 4.99992 13.5507 4.99992H7.90216C6.69004 4.99992 5.63931 7.48501 5.40102 9.27288C4.53372 9.71492 4.07784 10.6217 4.07784 11.6789C4.07784 12.4906 4.35041 13.2103 4.8647 13.7049V15.9999H6.95881V14.377H14.3586V15.9999H16.4519V13.7049C16.9663 13.2088 17.2388 12.4906 17.2388 11.6789C17.2403 10.6217 16.7845 9.71566 15.9164 9.27288ZM7.83481 6.81276H13.4834C14.2805 6.81276 14.9775 7.75599 15.2355 9.0346C15.1069 9.01048 14.9651 9.00313 14.8249 8.9959C14.8249 8.99003 14.8264 8.98562 14.8264 8.9806C14.8264 8.23978 14.2236 7.63623 13.482 7.63623C12.7419 7.63623 12.1391 8.23978 12.1391 8.9806H6.66445C6.45763 8.9806 6.26404 9.00031 6.08061 9.03472C6.34143 7.75599 7.03853 6.81276 7.83481 6.81276ZM14.4091 8.9806H12.5599C12.5599 8.47133 12.9748 8.05415 13.4841 8.05415C13.9941 8.05415 14.4091 8.4706 14.4091 8.9806ZM6.35318 12.5563C5.86951 12.5563 5.47645 12.164 5.47645 11.6789C5.47645 11.1952 5.86951 10.8029 6.35318 10.8029C6.83759 10.8029 7.23065 11.1952 7.23065 11.6789C7.23065 12.164 6.83759 12.5563 6.35318 12.5563ZM13.2058 12.3992H8.11179C7.99559 12.3992 7.90216 12.3064 7.90216 12.191C7.90216 12.0755 7.99571 11.9813 8.11179 11.9813H13.2058C13.322 11.9813 13.4154 12.0756 13.4154 12.191C13.4154 12.3063 13.3227 12.3992 13.2058 12.3992ZM13.2058 11.6321H8.11179C7.99559 11.6321 7.90216 11.5378 7.90216 11.4238C7.90216 11.3069 7.99571 11.2142 8.11179 11.2142H13.2058C13.322 11.2142 13.4154 11.307 13.4154 11.4238C13.4161 11.5378 13.3227 11.6321 13.2058 11.6321ZM14.9666 12.5563C14.4822 12.5563 14.0891 12.164 14.0891 11.6789C14.0891 11.1952 14.4822 10.8029 14.9666 10.8029C15.451 10.8029 15.8433 11.1952 15.8433 11.6789C15.8433 12.164 15.4503 12.5563 14.9666 12.5563Z" fill="white"/>
</svg>
